<?xml version="1.0" encoding="UTF-8"?>
<svg width="10px" height="11px" viewBox="0 0 10 11" version="1.1" xmlns="http://www.w3.org/2000/svg" xmlns:xlink="http://www.w3.org/1999/xlink">
    <!-- Generator: sketchtool 49.2 (51160) - http://www.bohemiancoding.com/sketch -->
    <title>6B3FB920-7CF6-47E5-A165-2781F597B7C2</title>
    <desc>Created with sketchtool.</desc>
    <defs></defs>
    <g id="Page-1" stroke="none" stroke-width="1" fill="none" fill-rule="evenodd">
        <g id="comment_hover" transform="translate(-129.000000, -92.000000)" fill="#000000" fill-rule="nonzero">
            <g id="reactions" transform="translate(122.000000, 88.000000)">
                <path d="M16.6998828,11.2233114 C16.910703,10.9455772 17.0118107,10.6478461 16.9989033,10.3412275 C16.9859959,10.0035027 16.8397125,9.73909975 16.7192438,9.57690297 C16.8590736,9.21695943 16.9128542,8.65038164 16.446038,8.21045065 C16.1039929,7.88827896 15.5231616,7.74385717 14.7186026,7.7838509 C14.1528299,7.81051338 13.67956,7.91938519 13.6601989,7.92382894 L13.6580477,7.92382894 C13.5504864,7.94382581 13.4364713,7.96826642 13.3203051,7.9949289 C13.3117002,7.85272898 13.3353637,7.49945107 13.5892084,6.70402028 C13.8903802,5.75750209 13.8731704,5.03317127 13.5332765,4.5488028 C13.1761728,4.03999373 12.6060977,4 12.438302,4 C12.2769599,4 12.1285253,4.06887808 12.0231152,4.19552488 C11.784329,4.48214659 11.8122949,5.01095253 11.8424121,5.25535864 C11.5584501,6.04190192 10.7624961,7.97048829 10.089162,8.50595985 C10.0762547,8.51484734 10.0654985,8.52595671 10.0547424,8.53706608 C9.85682952,8.75258783 9.72345344,8.98588457 9.6331019,9.19029695 C9.50617951,9.11919699 9.3620473,9.07920326 9.20715895,9.07920326 L7.89491045,9.07920326 C7.40012823,9.07920326 7,9.49469364 7,10.0035027 L7,13.6140475 C7,14.1250784 7.40227946,14.5383469 7.89491045,14.5383469 L9.20715895,14.5383469 C9.39861816,14.5383469 9.57717,14.4761345 9.72345344,14.3694845 L10.2289918,14.431697 C10.306436,14.4428064 11.6832213,14.6227781 13.0965774,14.5938938 C13.3525735,14.6138906 13.5935109,14.625 13.8172385,14.625 C14.2023082,14.625 14.5378996,14.5938938 14.8175591,14.5316813 C15.4758346,14.3872595 15.925441,14.0984159 16.1534711,13.6740381 C16.3277205,13.3496445 16.3277205,13.0274728 16.2997545,12.8230604 C16.7278487,12.4231232 16.8031416,11.9809703 16.7880831,11.669908 C16.7794782,11.4899362 16.7407561,11.3366269 16.6998828,11.2233114 Z M7.89491045,13.938441 C7.72066106,13.938441 7.5808313,13.7917974 7.5808313,13.6140475 L7.5808313,10.0012808 C7.5808313,9.82130908 7.72281229,9.67688729 7.89491045,9.67688729 L9.20715895,9.67688729 C9.38140834,9.67688729 9.5212381,9.82353095 9.5212381,10.0012808 L9.5212381,13.6118256 C9.5212381,13.7917974 9.37925711,13.9362192 9.20715895,13.9362192 L7.89491045,13.9362192 L7.89491045,13.938441 Z M16.1491686,10.9633522 C16.0588171,11.0611146 16.0416073,11.2099801 16.1104465,11.3255176 C16.1104465,11.3277394 16.1986468,11.4832706 16.209403,11.6965705 C16.2244616,11.9876359 16.0889343,12.2453733 15.8049723,12.4653388 C15.7038646,12.5453262 15.6629913,12.6830824 15.7060159,12.8075073 C15.7060159,12.8097292 15.7985186,13.1030165 15.6479327,13.3807507 C15.5038005,13.6473756 15.1832677,13.8384567 14.6970904,13.9451066 C14.3077183,14.0317597 13.7785164,14.0473128 13.1288459,13.9939879 C13.1202409,13.9939879 13.1094848,13.9939879 13.0987287,13.9939879 C11.7154897,14.0250941 10.3171921,13.8384567 10.3021335,13.8362348 L10.2999823,13.8362348 L10.0827084,13.8095724 C10.0956157,13.7473599 10.1020694,13.6807037 10.1020694,13.6140475 L10.1020694,10.0012808 C10.1020694,9.90574028 10.0870108,9.81242158 10.0611961,9.72576851 C10.0999182,9.57690297 10.2074795,9.24584379 10.4613243,8.96366583 C11.4272253,8.1726788 12.3716139,5.50420849 12.4124872,5.38867106 C12.4296971,5.34201171 12.4339995,5.29090862 12.4253946,5.23980552 C12.3888238,4.99095567 12.4017311,4.68655897 12.4533606,4.59546215 C12.5673756,4.59768402 12.8750011,4.63101213 13.0600066,4.8954151 C13.2794317,5.20869929 13.2708268,5.76861146 13.0341919,6.51071727 C12.6727857,7.64165098 12.6426685,8.23711313 12.9287817,8.49929423 C13.0707627,8.63038478 13.2600707,8.6370504 13.3977492,8.5859473 C13.5289741,8.55484107 13.6537453,8.52817859 13.7720627,8.50818172 C13.7806676,8.50595985 13.7914238,8.50373798 13.8000287,8.5015161 C14.4604554,8.35265056 15.6436303,8.26155374 16.0545146,8.64815977 C16.4030134,8.97699707 16.1556223,9.41248432 16.1276564,9.45914366 C16.048061,9.58356859 16.0717245,9.74576537 16.1792858,9.84574969 C16.181437,9.84797156 16.4073159,10.0679371 16.418072,10.3634463 C16.4266769,10.561193 16.3363254,10.7633835 16.1491686,10.9633522 Z" id="thumbs-up"></path>
            </g>
        </g>
    </g>
</svg>